<svg xmlns="http://www.w3.org/2000/svg" xmlns:xlink="http://www.w3.org/1999/xlink" width="1080" zoomAndPan="magnify" viewBox="0 0 810 809.999993" height="1080" preserveAspectRatio="xMidYMid meet" version="1.0"><path fill="#ffcc00" d="M 223.570312 665.859375 L 415.835938 486.625 C 390.757812 429.765625 415.382812 344.589844 480.875 279.113281 L 602.191406 157.804688 L 570.320312 125.929688 L 367.734375 314.777344 C 392.800781 371.632812 368.160156 456.792969 302.679688 522.253906 C 257.363281 567.570312 202.59375 593.261719 154.285156 596.566406 Z M 223.570312 665.859375 " fill-opacity="1" fill-rule="nonzero"/><path fill="#5bd2bc" d="M 491.867188 354.824219 C 500.042969 363 513.300781 363 521.476562 354.824219 L 660.359375 215.949219 L 630.75 186.359375 L 491.867188 325.234375 C 483.691406 333.394531 483.691406 346.648438 491.867188 354.824219 Z M 491.867188 354.824219 " fill-opacity="1" fill-rule="nonzero"/><path fill="#5bd2bc" d="M 598.449219 431.808594 C 590.273438 439.984375 590.273438 453.242188 598.449219 461.417969 C 606.628906 469.59375 619.882812 469.59375 628.058594 461.417969 L 766.769531 322.714844 C 765.683594 321.554688 764.710938 320.3125 763.578125 319.179688 L 737.332031 292.933594 Z M 598.449219 431.808594 " fill-opacity="1" fill-rule="nonzero"/><path fill="#ff5900" d="M 111.609375 331.191406 C 177.085938 265.71875 262.238281 241.078125 319.097656 266.140625 L 507.953125 63.570312 L 491.726562 47.34375 C 444.363281 -0.015625 367.578125 -0.015625 320.230469 47.34375 L 48.363281 319.179688 C 5.058594 362.484375 1.488281 430.316406 37.371094 477.832031 C 41.175781 429.953125 66.839844 375.957031 111.609375 331.191406 Z M 111.609375 331.191406 " fill-opacity="1" fill-rule="nonzero"/><path fill="#5bd2bc" d="M 575.445312 408.804688 L 714.328125 269.929688 L 684.71875 240.324219 L 545.835938 379.195312 C 537.65625 387.375 537.65625 400.628906 545.835938 408.804688 C 554.011719 416.980469 567.269531 416.980469 575.445312 408.804688 Z M 575.445312 408.804688 " fill-opacity="1" fill-rule="nonzero"/><path fill="#5bd2bc" d="M 671.964844 470.175781 C 606.46875 535.667969 521.304688 560.289062 464.441406 535.210938 L 285.195312 727.464844 L 320.230469 762.5 C 367.59375 809.859375 444.378906 809.859375 491.726562 762.5 L 763.578125 490.664062 C 800.484375 453.761719 808.488281 399.054688 787.886719 354.257812 Z M 671.964844 470.175781 " fill-opacity="1" fill-rule="nonzero"/></svg>